<svg width="650" height="650" viewBox="0 0 650 650" fill="none" xmlns="http://www.w3.org/2000/svg">
<path d="M498.757 138.72C505.808 137.455 512.287 142.875 512.287 150.039V380.86C512.287 405.3 492.577 425.167 468.138 425.359L159.203 427.792C145.516 427.9 134.396 416.772 134.512 403.085L136.018 225.734C136.126 212.989 145.292 202.126 157.838 199.876L498.757 138.72Z" fill="url(#paint0_linear_3385_1090)"/>
<path d="M498.757 138.72C505.808 137.455 512.287 142.875 512.287 150.039V380.86C512.287 405.3 492.577 425.167 468.138 425.359L159.203 427.792C145.516 427.9 134.396 416.772 134.512 403.085L136.018 225.734C136.126 212.989 145.292 202.126 157.838 199.876L498.757 138.72Z" fill="url(#paint1_linear_3385_1090)"/>
<path d="M498.757 138.72C505.808 137.455 512.287 142.875 512.287 150.039V380.86C512.287 405.3 492.577 425.167 468.138 425.359L159.203 427.792C145.516 427.9 134.396 416.772 134.512 403.085L136.018 225.734C136.126 212.989 145.292 202.126 157.838 199.876L498.757 138.72Z" stroke="url(#paint2_linear_3385_1090)" stroke-width="3"/>
<path d="M496.815 138.392C504.818 136.972 512.761 144.467 512.707 153.388L511.672 325.39L175.033 198.143L283.074 176.332L283.073 176.33L496.815 138.392Z" fill="white" fill-opacity="0.22" stroke="url(#paint3_linear_3385_1090)" stroke-width="2"/>
<g filter="url(#filter0_d_3385_1090)">
<path d="M556.711 193.531C563.623 192.575 569.787 197.945 569.787 204.923V436.278C569.787 460.749 550.028 480.629 525.558 480.777L103.726 483.34C90.0312 483.423 78.9275 472.264 79.0781 458.57L81.0215 282.138C81.1661 269.017 90.8904 257.978 103.888 256.18L556.711 193.531Z" fill="url(#paint4_linear_3385_1090)"/>
<path d="M556.711 193.531C563.623 192.575 569.787 197.945 569.787 204.923V436.278C569.787 460.749 550.028 480.629 525.558 480.777L103.726 483.34C90.0312 483.423 78.9275 472.264 79.0781 458.57L81.0215 282.138C81.1661 269.017 90.8904 257.978 103.888 256.18L556.711 193.531Z" fill="url(#paint5_linear_3385_1090)"/>
<path d="M556.711 193.531C563.623 192.575 569.787 197.945 569.787 204.923V436.278C569.787 460.749 550.028 480.629 525.558 480.777L103.726 483.34C90.0312 483.423 78.9275 472.264 79.0781 458.57L81.0215 282.138C81.1661 269.017 90.8904 257.978 103.888 256.18L556.711 193.531Z" stroke="url(#paint6_linear_3385_1090)" stroke-width="3"/>
<path d="M555.398 193.184C563.246 192.11 570.223 198.245 570.161 206.166L568.797 381.169L131.877 253.797L271.921 231.992L555.398 193.184Z" fill="white" fill-opacity="0.22" stroke="url(#paint7_linear_3385_1090)" stroke-width="2"/>
<path d="M556.711 193.531C563.623 192.575 569.787 197.945 569.787 204.923V436.278C569.787 460.749 550.028 480.629 525.558 480.777L103.726 483.34C90.0312 483.423 78.9275 472.264 79.0781 458.57L81.0215 282.138C81.1661 269.017 90.8904 257.978 103.888 256.18L556.711 193.531Z" stroke="url(#paint8_linear_3385_1090)" stroke-width="3"/>
</g>
<defs>
<filter id="filter0_d_3385_1090" x="61.5762" y="167.92" width="525.711" height="324.92" filterUnits="userSpaceOnUse" color-interpolation-filters="sRGB">
<feFlood flood-opacity="0" result="BackgroundImageFix"/>
<feColorMatrix in="SourceAlpha" type="matrix" values="0 0 0 0 0 0 0 0 0 0 0 0 0 0 0 0 0 0 127 0" result="hardAlpha"/>
<feOffset dy="-8"/>
<feGaussianBlur stdDeviation="8"/>
<feComposite in2="hardAlpha" operator="out"/>
<feColorMatrix type="matrix" values="0 0 0 0 0 0 0 0 0 0 0 0 0 0 0 0 0 0 0.25 0"/>
<feBlend mode="normal" in2="BackgroundImageFix" result="effect1_dropShadow_3385_1090"/>
<feBlend mode="normal" in="SourceGraphic" in2="effect1_dropShadow_3385_1090" result="shape"/>
</filter>
<linearGradient id="paint0_linear_3385_1090" x1="133.173" y1="210.5" x2="541.447" y2="350.413" gradientUnits="userSpaceOnUse">
<stop offset="0.17464" stop-color="#518BCF"/>
<stop offset="1" stop-color="#003471"/>
</linearGradient>
<linearGradient id="paint1_linear_3385_1090" x1="133.173" y1="212" x2="541.114" y2="350.843" gradientUnits="userSpaceOnUse">
<stop offset="0.606683" stop-opacity="0"/>
<stop offset="1" stop-opacity="0.42"/>
</linearGradient>
<linearGradient id="paint2_linear_3385_1090" x1="119.676" y1="182.5" x2="547.021" y2="341.98" gradientUnits="userSpaceOnUse">
<stop stop-color="#F5FBFC"/>
<stop offset="0.504808" stop-color="#CFEDF5"/>
<stop offset="1" stop-color="#04050D"/>
</linearGradient>
<linearGradient id="paint3_linear_3385_1090" x1="174.819" y1="199.309" x2="523.128" y2="276.982" gradientUnits="userSpaceOnUse">
<stop stop-color="#F4FAFC"/>
<stop offset="1" stop-color="#4178AF"/>
</linearGradient>
<linearGradient id="paint4_linear_3385_1090" x1="77.7871" y1="266" x2="571.787" y2="485.5" gradientUnits="userSpaceOnUse">
<stop offset="0.17464" stop-color="#81E2FF"/>
<stop offset="1" stop-color="#036DDE"/>
</linearGradient>
<linearGradient id="paint5_linear_3385_1090" x1="77.7871" y1="267.5" x2="571.787" y2="485.5" gradientUnits="userSpaceOnUse">
<stop offset="0.606683" stop-opacity="0"/>
<stop offset="1" stop-opacity="0.42"/>
</linearGradient>
<linearGradient id="paint6_linear_3385_1090" x1="60.2871" y1="238" x2="571.787" y2="485.5" gradientUnits="userSpaceOnUse">
<stop stop-color="#F5FBFC"/>
<stop offset="0.504808" stop-color="#CFEDF5"/>
<stop offset="1" stop-color="#04050D"/>
</linearGradient>
<linearGradient id="paint7_linear_3385_1090" x1="131.787" y1="255" x2="569.287" y2="381.5" gradientUnits="userSpaceOnUse">
<stop stop-color="#F4FAFC"/>
<stop offset="1" stop-color="#4178AF"/>
</linearGradient>
<linearGradient id="paint8_linear_3385_1090" x1="60.2871" y1="238" x2="571.787" y2="485.5" gradientUnits="userSpaceOnUse">
<stop stop-color="#F5FBFC"/>
<stop offset="0.504808" stop-color="#CFEDF5"/>
<stop offset="1" stop-color="#04050D"/>
</linearGradient>
</defs>
</svg>
